<svg xmlns="http://www.w3.org/2000/svg" xmlns:xlink="http://www.w3.org/1999/xlink" width="500" zoomAndPan="magnify" viewBox="0 0 375 374.999991" height="500" preserveAspectRatio="xMidYMid meet" version="1.0"><defs><g/><clipPath id="50cdb5b076"><path d="M 132 90.730469 L 246 90.730469 L 246 203.980469 L 132 203.980469 Z M 132 90.730469 " clip-rule="nonzero"/></clipPath><clipPath id="a141d008e3"><path d="M 147 90.730469 L 232 90.730469 L 232 203.980469 L 147 203.980469 Z M 147 90.730469 " clip-rule="nonzero"/></clipPath><clipPath id="655a4d2fb3"><path d="M 171 90.730469 L 207 90.730469 L 207 203.980469 L 171 203.980469 Z M 171 90.730469 " clip-rule="nonzero"/></clipPath><clipPath id="a8cac3e6c3"><rect x="0" width="149" y="0" height="24"/></clipPath></defs><g clip-path="url(#50cdb5b076)"><path fill="#145da0" d="M 189.3125 203.949219 C 158.097656 203.949219 132.699219 178.554688 132.699219 147.339844 C 132.699219 116.125 158.097656 90.726562 189.3125 90.726562 C 220.527344 90.726562 245.921875 116.121094 245.921875 147.339844 C 245.921875 178.554688 220.527344 203.949219 189.3125 203.949219 Z M 189.3125 94.929688 C 160.414062 94.929688 136.902344 118.441406 136.902344 147.339844 C 136.902344 176.238281 160.414062 199.75 189.3125 199.75 C 218.210938 199.75 241.71875 176.238281 241.71875 147.339844 C 241.71875 118.441406 218.210938 94.929688 189.3125 94.929688 Z M 189.3125 94.929688 " fill-opacity="1" fill-rule="nonzero"/></g><path fill="#145da0" d="M 189.3125 129.96875 C 173.574219 129.96875 158.421875 123.339844 147.734375 111.777344 L 150.816406 108.925781 C 160.714844 119.628906 174.742188 125.765625 189.3125 125.765625 C 203.878906 125.765625 217.910156 119.628906 227.804688 108.925781 L 230.890625 111.777344 C 220.203125 123.335938 205.046875 129.96875 189.3125 129.96875 Z M 189.3125 129.96875 " fill-opacity="1" fill-rule="nonzero"/><path fill="#145da0" d="M 150.820312 185.964844 L 147.734375 183.113281 C 158.421875 171.550781 173.574219 164.921875 189.3125 164.921875 C 205.046875 164.921875 220.203125 171.550781 230.890625 183.113281 L 227.804688 185.964844 C 217.910156 175.261719 203.882812 169.121094 189.3125 169.121094 C 174.742188 169.121094 160.714844 175.261719 150.820312 185.964844 Z M 150.820312 185.964844 " fill-opacity="1" fill-rule="nonzero"/><g clip-path="url(#a141d008e3)"><path fill="#145da0" d="M 189.3125 203.949219 C 178.019531 203.949219 167.449219 197.972656 159.546875 187.121094 C 151.792969 176.46875 147.519531 162.339844 147.519531 147.339844 C 147.519531 132.335938 151.792969 118.210938 159.546875 107.558594 C 167.449219 96.703125 178.019531 90.726562 189.3125 90.726562 C 200.601562 90.726562 211.171875 96.703125 219.074219 107.558594 C 226.832031 118.210938 231.101562 132.335938 231.101562 147.339844 C 231.101562 162.339844 226.832031 176.46875 219.074219 187.121094 C 211.171875 197.972656 200.601562 203.949219 189.3125 203.949219 Z M 189.3125 94.929688 C 168.585938 94.929688 151.722656 118.441406 151.722656 147.339844 C 151.722656 176.238281 168.582031 199.75 189.3125 199.75 C 210.039062 199.75 226.902344 176.238281 226.902344 147.339844 C 226.902344 118.441406 210.039062 94.929688 189.3125 94.929688 Z M 189.3125 94.929688 " fill-opacity="1" fill-rule="nonzero"/></g><g clip-path="url(#655a4d2fb3)"><path fill="#145da0" d="M 189.3125 203.949219 C 184.117188 203.949219 179.671875 197.898438 176.453125 186.453125 C 173.507812 175.976562 171.886719 162.085938 171.886719 147.339844 C 171.886719 132.589844 173.511719 118.699219 176.453125 108.226562 C 179.671875 96.777344 184.117188 90.726562 189.3125 90.726562 C 194.503906 90.726562 198.949219 96.777344 202.167969 108.226562 C 205.113281 118.699219 206.734375 132.589844 206.734375 147.339844 C 206.734375 162.085938 205.113281 175.976562 202.167969 186.453125 C 198.949219 197.898438 194.503906 203.949219 189.3125 203.949219 Z M 189.3125 94.929688 C 183.789062 94.929688 176.089844 114.867188 176.089844 147.339844 C 176.089844 179.8125 183.789062 199.75 189.3125 199.75 C 194.832031 199.75 202.53125 179.808594 202.53125 147.339844 C 202.53125 114.867188 194.832031 94.929688 189.3125 94.929688 Z M 189.3125 94.929688 " fill-opacity="1" fill-rule="nonzero"/></g><path fill="#ffffff" d="M 247.488281 158.617188 C 245.324219 161.011719 129.082031 161.355469 126.921875 158.617188 C 124.761719 155.878906 124.761719 136.023438 126.921875 133.285156 C 129.082031 130.542969 244.707031 131.230469 247.488281 133.285156 C 250.265625 135.335938 249.648438 156.21875 247.488281 158.617188 Z M 247.488281 158.617188 " fill-opacity="1" fill-rule="nonzero"/><path fill="#051d40" d="M 184.257812 161.804688 C 169.222656 161.804688 155.359375 161.640625 145.222656 161.335938 C 127.035156 160.796875 126.449219 160.054688 125.933594 159.398438 C 124.175781 157.175781 124.039062 148.542969 124.039062 145.949219 C 124.039062 143.359375 124.175781 134.726562 125.933594 132.503906 C 126.460938 131.835938 127.003906 131.144531 143.9375 130.644531 C 153.394531 130.363281 166.125 130.21875 180.75 130.21875 C 196.625 130.21875 212.890625 130.394531 225.382812 130.710938 C 246.847656 131.246094 247.71875 131.886719 248.234375 132.269531 C 248.96875 132.8125 249.871094 134.03125 250.335938 138.691406 C 251 145.289062 250.476562 157.183594 248.421875 159.460938 C 247.90625 160.03125 247.265625 160.746094 226.945312 161.304688 C 215.433594 161.625 199.875 161.804688 184.257812 161.804688 Z M 127.800781 157.660156 C 130.355469 158.453125 148.808594 159.285156 184.257812 159.285156 C 216.351562 159.285156 243.382812 158.558594 246.652344 157.621094 C 247.222656 156.578125 247.984375 152.222656 248.078125 145.929688 C 248.179688 139.074219 247.40625 135.121094 246.792969 134.355469 C 243.695312 133.476562 213.761719 132.738281 180.75 132.738281 C 147.339844 132.738281 130.257812 133.480469 127.800781 134.238281 C 127.253906 135.308594 126.558594 139.375 126.558594 145.949219 C 126.558594 152.527344 127.253906 156.589844 127.800781 157.660156 Z M 127.800781 157.660156 " fill-opacity="1" fill-rule="nonzero"/><path fill="#051d40" d="M 247.488281 133.285156 C 246.675781 132.683594 236.257812 132.203125 221.859375 131.886719 L 221.859375 160.171875 C 236.382812 159.847656 246.851562 159.320312 247.488281 158.617188 C 249.648438 156.21875 250.265625 135.335938 247.488281 133.285156 Z M 247.488281 133.285156 " fill-opacity="1" fill-rule="nonzero"/><path fill="#051d40" d="M 220.597656 161.460938 L 220.597656 130.597656 L 221.886719 130.625 C 246.75 131.171875 247.71875 131.886719 248.238281 132.269531 C 248.96875 132.8125 249.871094 134.03125 250.339844 138.691406 C 251 145.289062 250.476562 157.183594 248.421875 159.460938 C 247.886719 160.054688 247.152344 160.867188 221.886719 161.429688 Z M 223.121094 133.175781 L 223.121094 158.882812 C 241.863281 158.441406 245.828125 157.828125 246.65625 157.613281 C 247.222656 156.5625 247.984375 152.214844 248.078125 145.929688 C 248.179688 139.085938 247.40625 135.132812 246.792969 134.359375 C 246.117188 134.183594 242.460938 133.621094 223.121094 133.175781 Z M 223.121094 133.175781 " fill-opacity="1" fill-rule="nonzero"/><path fill="#051d40" d="M 147.207031 154.113281 C 146.695312 154.113281 146.230469 153.800781 146.039062 153.320312 L 142.957031 145.652344 L 139.550781 153.359375 C 139.347656 153.816406 138.894531 154.113281 138.398438 154.113281 C 138.394531 154.113281 138.390625 154.113281 138.386719 154.113281 C 137.882812 154.105469 137.429688 153.800781 137.234375 153.335938 L 132.46875 141.917969 C 132.199219 141.273438 132.503906 140.535156 133.144531 140.269531 C 133.785156 140 134.527344 140.304688 134.792969 140.945312 L 138.429688 149.660156 L 141.859375 141.902344 C 142.0625 141.445312 142.515625 141.148438 143.015625 141.148438 C 143.019531 141.148438 143.027344 141.148438 143.035156 141.148438 C 143.542969 141.160156 143.996094 141.472656 144.183594 141.941406 L 147.117188 149.242188 L 149.945312 141.019531 C 150.171875 140.363281 150.886719 140.011719 151.546875 140.238281 C 152.203125 140.464844 152.554688 141.183594 152.328125 141.839844 L 148.402344 153.261719 C 148.230469 153.757812 147.769531 154.097656 147.242188 154.113281 C 147.230469 154.113281 147.21875 154.113281 147.207031 154.113281 Z M 147.207031 154.113281 " fill-opacity="1" fill-rule="nonzero"/><path fill="#051d40" d="M 170.0625 154.113281 C 169.546875 154.113281 169.085938 153.800781 168.890625 153.320312 L 165.8125 145.652344 L 162.402344 153.359375 C 162.199219 153.820312 161.730469 154.097656 161.238281 154.113281 C 160.734375 154.105469 160.28125 153.800781 160.085938 153.335938 L 155.320312 141.917969 C 155.050781 141.273438 155.355469 140.535156 155.996094 140.269531 C 156.636719 140 157.378906 140.304688 157.644531 140.945312 L 161.285156 149.660156 L 164.714844 141.902344 C 164.914062 141.445312 165.367188 141.148438 165.867188 141.148438 C 165.875 141.148438 165.878906 141.148438 165.886719 141.148438 C 166.394531 141.160156 166.847656 141.472656 167.035156 141.941406 L 169.96875 149.242188 L 172.796875 141.019531 C 173.023438 140.363281 173.738281 140.011719 174.398438 140.238281 C 175.058594 140.464844 175.40625 141.183594 175.179688 141.839844 L 171.253906 153.261719 C 171.082031 153.757812 170.621094 154.097656 170.09375 154.113281 C 170.082031 154.113281 170.070312 154.113281 170.0625 154.113281 Z M 170.0625 154.113281 " fill-opacity="1" fill-rule="nonzero"/><path fill="#051d40" d="M 192.914062 154.113281 C 192.398438 154.113281 191.9375 153.800781 191.746094 153.320312 L 188.664062 145.652344 L 185.253906 153.359375 C 185.050781 153.820312 184.59375 154.097656 184.089844 154.113281 C 183.585938 154.105469 183.132812 153.800781 182.941406 153.335938 L 178.171875 141.917969 C 177.90625 141.273438 178.207031 140.535156 178.851562 140.269531 C 179.492188 140 180.230469 140.304688 180.5 140.945312 L 184.136719 149.660156 L 187.566406 141.902344 C 187.769531 141.445312 188.21875 141.148438 188.71875 141.148438 C 188.726562 141.148438 188.730469 141.148438 188.738281 141.148438 C 189.246094 141.160156 189.699219 141.472656 189.886719 141.941406 L 192.820312 149.242188 L 195.648438 141.019531 C 195.875 140.363281 196.589844 140.011719 197.25 140.238281 C 197.910156 140.464844 198.257812 141.183594 198.03125 141.839844 L 194.105469 153.261719 C 193.933594 153.757812 193.472656 154.097656 192.945312 154.113281 C 192.933594 154.113281 192.925781 154.113281 192.914062 154.113281 Z M 192.914062 154.113281 " fill-opacity="1" fill-rule="nonzero"/><path fill="#b1d4e0" d="M 236.457031 147.8125 C 233.167969 150.5625 228.257812 150.121094 225.511719 146.832031 C 222.761719 143.542969 223.199219 138.632812 226.488281 135.886719 C 229.777344 133.136719 234.691406 133.574219 237.4375 136.863281 C 240.183594 140.152344 239.746094 145.0625 236.457031 147.8125 Z M 228.105469 137.820312 C 225.882812 139.675781 225.585938 142.996094 227.445312 145.214844 C 229.300781 147.4375 232.621094 147.734375 234.839844 145.878906 C 237.0625 144.019531 237.359375 140.703125 235.503906 138.480469 C 233.644531 136.257812 230.328125 135.960938 228.105469 137.820312 Z M 228.105469 137.820312 " fill-opacity="1" fill-rule="nonzero"/><path fill="#b1d4e0" d="M 234.363281 147.925781 L 236.941406 145.769531 L 238.597656 147.753906 L 236.019531 149.90625 Z M 234.363281 147.925781 " fill-opacity="1" fill-rule="nonzero"/><path fill="#b1d4e0" d="M 243.367188 156.082031 C 242.835938 156.527344 242.039062 156.457031 241.59375 155.921875 L 237.550781 151.085938 C 237.105469 150.554688 237.175781 149.757812 237.710938 149.3125 C 238.246094 148.867188 239.039062 148.9375 239.484375 149.472656 L 243.527344 154.304688 C 243.972656 154.839844 243.902344 155.636719 243.367188 156.082031 Z M 243.367188 156.082031 " fill-opacity="1" fill-rule="nonzero"/><path fill="#b1d4e0" d="M 236.664062 149.363281 L 237.957031 148.285156 L 239.613281 150.269531 L 238.324219 151.347656 Z M 236.664062 149.363281 " fill-opacity="1" fill-rule="nonzero"/><g transform="matrix(1, 0, 0, 1, 111, 263)"><g clip-path="url(#a8cac3e6c3)"><g fill="#000000" fill-opacity="1"><g transform="translate(1.168461, 16.284656)"><g><path d="M 10.28125 -11.46875 L 10.28125 -4.046875 C 10.28125 -3.253906 10.117188 -2.539062 9.796875 -1.90625 C 9.472656 -1.269531 8.976562 -0.765625 8.3125 -0.390625 C 7.65625 -0.0234375 6.820312 0.15625 5.8125 0.15625 C 4.375 0.15625 3.285156 -0.226562 2.546875 -1 C 1.816406 -1.78125 1.453125 -2.804688 1.453125 -4.078125 L 1.453125 -11.46875 L 2.890625 -11.46875 L 2.890625 -4.03125 C 2.890625 -3.101562 3.140625 -2.378906 3.640625 -1.859375 C 4.140625 -1.347656 4.890625 -1.09375 5.890625 -1.09375 C 6.929688 -1.09375 7.679688 -1.367188 8.140625 -1.921875 C 8.609375 -2.472656 8.84375 -3.179688 8.84375 -4.046875 L 8.84375 -11.46875 Z M 10.28125 -11.46875 "/></g></g></g><g fill="#000000" fill-opacity="1"><g transform="translate(14.058228, 16.284656)"><g><path d="M 5.515625 -8.765625 C 6.535156 -8.765625 7.304688 -8.515625 7.828125 -8.015625 C 8.359375 -7.515625 8.625 -6.710938 8.625 -5.609375 L 8.625 0 L 7.234375 0 L 7.234375 -5.515625 C 7.234375 -6.890625 6.585938 -7.578125 5.296875 -7.578125 C 4.347656 -7.578125 3.691406 -7.304688 3.328125 -6.765625 C 2.960938 -6.234375 2.78125 -5.46875 2.78125 -4.46875 L 2.78125 0 L 1.359375 0 L 1.359375 -8.609375 L 2.5 -8.609375 L 2.71875 -7.4375 L 2.796875 -7.4375 C 3.078125 -7.882812 3.460938 -8.21875 3.953125 -8.4375 C 4.441406 -8.65625 4.960938 -8.765625 5.515625 -8.765625 Z M 5.515625 -8.765625 "/></g></g></g><g fill="#000000" fill-opacity="1"><g transform="translate(25.134223, 16.284656)"><g><path d="M 2.09375 -11.84375 C 2.300781 -11.84375 2.488281 -11.769531 2.65625 -11.625 C 2.820312 -11.476562 2.90625 -11.25 2.90625 -10.9375 C 2.90625 -10.625 2.820312 -10.394531 2.65625 -10.25 C 2.488281 -10.101562 2.300781 -10.03125 2.09375 -10.03125 C 1.851562 -10.03125 1.648438 -10.101562 1.484375 -10.25 C 1.328125 -10.394531 1.25 -10.625 1.25 -10.9375 C 1.25 -11.25 1.328125 -11.476562 1.484375 -11.625 C 1.648438 -11.769531 1.851562 -11.84375 2.09375 -11.84375 Z M 2.78125 -8.609375 L 2.78125 0 L 1.359375 0 L 1.359375 -8.609375 Z M 2.78125 -8.609375 "/></g></g></g><g fill="#000000" fill-opacity="1"><g transform="translate(30.431823, 16.284656)"><g><path d="M 7.09375 3.859375 L 7.09375 0.171875 C 7.09375 -0.015625 7.097656 -0.238281 7.109375 -0.5 C 7.117188 -0.757812 7.144531 -0.976562 7.1875 -1.15625 L 7.078125 -1.15625 C 6.835938 -0.789062 6.5 -0.476562 6.0625 -0.21875 C 5.625 0.03125 5.066406 0.15625 4.390625 0.15625 C 3.347656 0.15625 2.503906 -0.210938 1.859375 -0.953125 C 1.210938 -1.703125 0.890625 -2.8125 0.890625 -4.28125 C 0.890625 -5.757812 1.21875 -6.875 1.875 -7.625 C 2.53125 -8.382812 3.382812 -8.765625 4.4375 -8.765625 C 5.101562 -8.765625 5.648438 -8.632812 6.078125 -8.375 C 6.515625 -8.125 6.859375 -7.8125 7.109375 -7.4375 L 7.1875 -7.4375 L 7.390625 -8.609375 L 8.515625 -8.609375 L 8.515625 3.859375 Z M 4.65625 -1.015625 C 5.53125 -1.015625 6.15625 -1.253906 6.53125 -1.734375 C 6.90625 -2.222656 7.097656 -2.972656 7.109375 -3.984375 L 7.109375 -4.265625 C 7.109375 -5.359375 6.925781 -6.1875 6.5625 -6.75 C 6.195312 -7.3125 5.550781 -7.59375 4.625 -7.59375 C 3.851562 -7.59375 3.28125 -7.289062 2.90625 -6.6875 C 2.53125 -6.082031 2.34375 -5.269531 2.34375 -4.25 C 2.34375 -3.238281 2.53125 -2.445312 2.90625 -1.875 C 3.28125 -1.300781 3.863281 -1.015625 4.65625 -1.015625 Z M 4.65625 -1.015625 "/></g></g></g><g fill="#000000" fill-opacity="1"><g transform="translate(41.459662, 16.284656)"><g><path d="M 8.5625 -8.609375 L 8.5625 0 L 7.40625 0 L 7.203125 -1.140625 L 7.125 -1.140625 C 6.851562 -0.691406 6.46875 -0.363281 5.96875 -0.15625 C 5.476562 0.0507812 4.957031 0.15625 4.40625 0.15625 C 3.363281 0.15625 2.578125 -0.0859375 2.046875 -0.578125 C 1.523438 -1.078125 1.265625 -1.875 1.265625 -2.96875 L 1.265625 -8.609375 L 2.703125 -8.609375 L 2.703125 -3.0625 C 2.703125 -1.695312 3.335938 -1.015625 4.609375 -1.015625 C 5.566406 -1.015625 6.226562 -1.28125 6.59375 -1.8125 C 6.957031 -2.351562 7.140625 -3.125 7.140625 -4.125 L 7.140625 -8.609375 Z M 8.5625 -8.609375 "/></g></g></g><g fill="#000000" fill-opacity="1"><g transform="translate(52.535657, 16.284656)"><g><path d="M 4.6875 -8.765625 C 5.414062 -8.765625 6.046875 -8.601562 6.578125 -8.28125 C 7.117188 -7.96875 7.53125 -7.519531 7.8125 -6.9375 C 8.09375 -6.351562 8.234375 -5.671875 8.234375 -4.890625 L 8.234375 -4.03125 L 2.34375 -4.03125 C 2.363281 -3.050781 2.613281 -2.304688 3.09375 -1.796875 C 3.570312 -1.296875 4.238281 -1.046875 5.09375 -1.046875 C 5.632812 -1.046875 6.117188 -1.09375 6.546875 -1.1875 C 6.972656 -1.289062 7.410156 -1.441406 7.859375 -1.640625 L 7.859375 -0.40625 C 7.421875 -0.207031 6.984375 -0.0664062 6.546875 0.015625 C 6.117188 0.109375 5.613281 0.15625 5.03125 0.15625 C 4.207031 0.15625 3.484375 -0.00390625 2.859375 -0.328125 C 2.234375 -0.660156 1.75 -1.15625 1.40625 -1.8125 C 1.0625 -2.46875 0.890625 -3.273438 0.890625 -4.234375 C 0.890625 -5.179688 1.046875 -5.988281 1.359375 -6.65625 C 1.671875 -7.332031 2.113281 -7.851562 2.6875 -8.21875 C 3.257812 -8.582031 3.925781 -8.765625 4.6875 -8.765625 Z M 4.671875 -7.609375 C 3.992188 -7.609375 3.457031 -7.390625 3.0625 -6.953125 C 2.675781 -6.523438 2.445312 -5.925781 2.375 -5.15625 L 6.765625 -5.15625 C 6.753906 -5.882812 6.582031 -6.472656 6.25 -6.921875 C 5.914062 -7.378906 5.390625 -7.609375 4.671875 -7.609375 Z M 4.671875 -7.609375 "/></g></g></g><g fill="#000000" fill-opacity="1"><g transform="translate(62.744891, 16.284656)"><g/></g></g><g fill="#000000" fill-opacity="1"><g transform="translate(65.506414, 16.284656)"><g><path d="M 2.78125 -12.203125 L 2.78125 -9.234375 C 2.78125 -8.867188 2.769531 -8.523438 2.75 -8.203125 C 2.738281 -7.890625 2.722656 -7.644531 2.703125 -7.46875 L 2.78125 -7.46875 C 3.019531 -7.832031 3.351562 -8.132812 3.78125 -8.375 C 4.21875 -8.625 4.769531 -8.75 5.4375 -8.75 C 6.507812 -8.75 7.367188 -8.375 8.015625 -7.625 C 8.671875 -6.882812 9 -5.78125 9 -4.3125 C 9 -2.832031 8.671875 -1.71875 8.015625 -0.96875 C 7.359375 -0.21875 6.5 0.15625 5.4375 0.15625 C 4.769531 0.15625 4.21875 0.0351562 3.78125 -0.203125 C 3.351562 -0.453125 3.019531 -0.75 2.78125 -1.09375 L 2.671875 -1.09375 L 2.375 0 L 1.359375 0 L 1.359375 -12.203125 Z M 5.203125 -7.578125 C 4.285156 -7.578125 3.648438 -7.3125 3.296875 -6.78125 C 2.953125 -6.257812 2.78125 -5.453125 2.78125 -4.359375 L 2.78125 -4.28125 C 2.78125 -3.226562 2.953125 -2.421875 3.296875 -1.859375 C 3.648438 -1.296875 4.296875 -1.015625 5.234375 -1.015625 C 6.003906 -1.015625 6.578125 -1.296875 6.953125 -1.859375 C 7.335938 -2.429688 7.53125 -3.253906 7.53125 -4.328125 C 7.53125 -6.492188 6.753906 -7.578125 5.203125 -7.578125 Z M 5.203125 -7.578125 "/></g></g></g><g fill="#000000" fill-opacity="1"><g transform="translate(76.534253, 16.284656)"><g><path d="M 0.015625 -8.609375 L 1.53125 -8.609375 L 3.390625 -3.703125 C 3.546875 -3.265625 3.6875 -2.851562 3.8125 -2.46875 C 3.945312 -2.082031 4.046875 -1.710938 4.109375 -1.359375 L 4.171875 -1.359375 C 4.234375 -1.628906 4.332031 -1.976562 4.46875 -2.40625 C 4.613281 -2.84375 4.765625 -3.28125 4.921875 -3.71875 L 6.671875 -8.609375 L 8.1875 -8.609375 L 4.484375 1.1875 C 4.171875 2 3.78125 2.644531 3.3125 3.125 C 2.84375 3.613281 2.1875 3.859375 1.34375 3.859375 C 1.09375 3.859375 0.867188 3.84375 0.671875 3.8125 C 0.484375 3.789062 0.316406 3.757812 0.171875 3.71875 L 0.171875 2.609375 C 0.296875 2.628906 0.4375 2.648438 0.59375 2.671875 C 0.757812 2.691406 0.9375 2.703125 1.125 2.703125 C 1.613281 2.703125 2.007812 2.5625 2.3125 2.28125 C 2.613281 2 2.851562 1.628906 3.03125 1.171875 L 3.484375 0.03125 Z M 0.015625 -8.609375 "/></g></g></g><g fill="#000000" fill-opacity="1"><g transform="translate(85.876724, 16.284656)"><g/></g></g><g fill="#000000" fill-opacity="1"><g transform="translate(88.638247, 16.284656)"><g><path d="M 10.75 -5.84375 C 10.75 -3.90625 10.21875 -2.445312 9.15625 -1.46875 C 8.101562 -0.488281 6.632812 0 4.75 0 L 1.5625 0 L 1.5625 -11.46875 L 5.09375 -11.46875 C 6.238281 -11.46875 7.234375 -11.253906 8.078125 -10.828125 C 8.929688 -10.398438 9.585938 -9.765625 10.046875 -8.921875 C 10.515625 -8.085938 10.75 -7.0625 10.75 -5.84375 Z M 9.21875 -5.796875 C 9.21875 -7.328125 8.835938 -8.445312 8.078125 -9.15625 C 7.328125 -9.875 6.265625 -10.234375 4.890625 -10.234375 L 3 -10.234375 L 3 -1.234375 L 4.5625 -1.234375 C 7.664062 -1.234375 9.21875 -2.753906 9.21875 -5.796875 Z M 9.21875 -5.796875 "/></g></g></g><g fill="#000000" fill-opacity="1"><g transform="translate(101.511961, 16.284656)"><g><path d="M 4.6875 -8.765625 C 5.414062 -8.765625 6.046875 -8.601562 6.578125 -8.28125 C 7.117188 -7.96875 7.53125 -7.519531 7.8125 -6.9375 C 8.09375 -6.351562 8.234375 -5.671875 8.234375 -4.890625 L 8.234375 -4.03125 L 2.34375 -4.03125 C 2.363281 -3.050781 2.613281 -2.304688 3.09375 -1.796875 C 3.570312 -1.296875 4.238281 -1.046875 5.09375 -1.046875 C 5.632812 -1.046875 6.117188 -1.09375 6.546875 -1.1875 C 6.972656 -1.289062 7.410156 -1.441406 7.859375 -1.640625 L 7.859375 -0.40625 C 7.421875 -0.207031 6.984375 -0.0664062 6.546875 0.015625 C 6.117188 0.109375 5.613281 0.15625 5.03125 0.15625 C 4.207031 0.15625 3.484375 -0.00390625 2.859375 -0.328125 C 2.234375 -0.660156 1.75 -1.15625 1.40625 -1.8125 C 1.0625 -2.46875 0.890625 -3.273438 0.890625 -4.234375 C 0.890625 -5.179688 1.046875 -5.988281 1.359375 -6.65625 C 1.671875 -7.332031 2.113281 -7.851562 2.6875 -8.21875 C 3.257812 -8.582031 3.925781 -8.765625 4.6875 -8.765625 Z M 4.671875 -7.609375 C 3.992188 -7.609375 3.457031 -7.390625 3.0625 -6.953125 C 2.675781 -6.523438 2.445312 -5.925781 2.375 -5.15625 L 6.765625 -5.15625 C 6.753906 -5.882812 6.582031 -6.472656 6.25 -6.921875 C 5.914062 -7.378906 5.390625 -7.609375 4.671875 -7.609375 Z M 4.671875 -7.609375 "/></g></g></g><g fill="#000000" fill-opacity="1"><g transform="translate(111.721195, 16.284656)"><g><path d="M 6.96875 -2.375 C 6.96875 -1.539062 6.65625 -0.910156 6.03125 -0.484375 C 5.414062 -0.0546875 4.582031 0.15625 3.53125 0.15625 C 2.9375 0.15625 2.421875 0.109375 1.984375 0.015625 C 1.546875 -0.078125 1.160156 -0.210938 0.828125 -0.390625 L 0.828125 -1.671875 C 1.171875 -1.492188 1.585938 -1.332031 2.078125 -1.1875 C 2.566406 -1.050781 3.0625 -0.984375 3.5625 -0.984375 C 4.28125 -0.984375 4.800781 -1.097656 5.125 -1.328125 C 5.445312 -1.554688 5.609375 -1.863281 5.609375 -2.25 C 5.609375 -2.457031 5.546875 -2.644531 5.421875 -2.8125 C 5.304688 -2.988281 5.097656 -3.160156 4.796875 -3.328125 C 4.492188 -3.503906 4.054688 -3.703125 3.484375 -3.921875 C 2.929688 -4.128906 2.457031 -4.34375 2.0625 -4.5625 C 1.664062 -4.78125 1.359375 -5.035156 1.140625 -5.328125 C 0.921875 -5.628906 0.8125 -6.015625 0.8125 -6.484375 C 0.8125 -7.210938 1.109375 -7.773438 1.703125 -8.171875 C 2.304688 -8.566406 3.085938 -8.765625 4.046875 -8.765625 C 4.566406 -8.765625 5.054688 -8.710938 5.515625 -8.609375 C 5.972656 -8.503906 6.398438 -8.363281 6.796875 -8.1875 L 6.3125 -7.0625 C 5.945312 -7.21875 5.566406 -7.347656 5.171875 -7.453125 C 4.773438 -7.554688 4.367188 -7.609375 3.953125 -7.609375 C 3.367188 -7.609375 2.925781 -7.515625 2.625 -7.328125 C 2.320312 -7.140625 2.171875 -6.882812 2.171875 -6.5625 C 2.171875 -6.320312 2.238281 -6.117188 2.375 -5.953125 C 2.519531 -5.796875 2.753906 -5.632812 3.078125 -5.46875 C 3.398438 -5.3125 3.835938 -5.132812 4.390625 -4.9375 C 4.929688 -4.726562 5.394531 -4.515625 5.78125 -4.296875 C 6.164062 -4.085938 6.457031 -3.828125 6.65625 -3.515625 C 6.863281 -3.210938 6.96875 -2.832031 6.96875 -2.375 Z M 6.96875 -2.375 "/></g></g></g><g fill="#000000" fill-opacity="1"><g transform="translate(120.56609, 16.284656)"><g><path d="M 2.09375 -11.84375 C 2.300781 -11.84375 2.488281 -11.769531 2.65625 -11.625 C 2.820312 -11.476562 2.90625 -11.25 2.90625 -10.9375 C 2.90625 -10.625 2.820312 -10.394531 2.65625 -10.25 C 2.488281 -10.101562 2.300781 -10.03125 2.09375 -10.03125 C 1.851562 -10.03125 1.648438 -10.101562 1.484375 -10.25 C 1.328125 -10.394531 1.25 -10.625 1.25 -10.9375 C 1.25 -11.25 1.328125 -11.476562 1.484375 -11.625 C 1.648438 -11.769531 1.851562 -11.84375 2.09375 -11.84375 Z M 2.78125 -8.609375 L 2.78125 0 L 1.359375 0 L 1.359375 -8.609375 Z M 2.78125 -8.609375 "/></g></g></g><g fill="#000000" fill-opacity="1"><g transform="translate(125.86369, 16.284656)"><g><path d="M 4.421875 -8.765625 C 4.984375 -8.765625 5.492188 -8.65625 5.953125 -8.4375 C 6.410156 -8.226562 6.796875 -7.90625 7.109375 -7.46875 L 7.203125 -7.46875 L 7.390625 -8.609375 L 8.515625 -8.609375 L 8.515625 0.140625 C 8.515625 1.367188 8.203125 2.296875 7.578125 2.921875 C 6.953125 3.546875 5.976562 3.859375 4.65625 3.859375 C 3.394531 3.859375 2.363281 3.675781 1.5625 3.3125 L 1.5625 2 C 2.40625 2.457031 3.460938 2.6875 4.734375 2.6875 C 5.472656 2.6875 6.050781 2.46875 6.46875 2.03125 C 6.894531 1.59375 7.109375 1 7.109375 0.25 L 7.109375 -0.078125 C 7.109375 -0.203125 7.113281 -0.382812 7.125 -0.625 C 7.132812 -0.875 7.144531 -1.046875 7.15625 -1.140625 L 7.09375 -1.140625 C 6.519531 -0.273438 5.632812 0.15625 4.4375 0.15625 C 3.320312 0.15625 2.453125 -0.234375 1.828125 -1.015625 C 1.203125 -1.796875 0.890625 -2.882812 0.890625 -4.28125 C 0.890625 -5.65625 1.203125 -6.742188 1.828125 -7.546875 C 2.453125 -8.359375 3.316406 -8.765625 4.421875 -8.765625 Z M 4.609375 -7.578125 C 3.890625 -7.578125 3.332031 -7.289062 2.9375 -6.71875 C 2.539062 -6.144531 2.34375 -5.328125 2.34375 -4.265625 C 2.34375 -3.210938 2.535156 -2.40625 2.921875 -1.84375 C 3.304688 -1.28125 3.878906 -1 4.640625 -1 C 5.503906 -1 6.132812 -1.226562 6.53125 -1.6875 C 6.925781 -2.15625 7.125 -2.910156 7.125 -3.953125 L 7.125 -4.28125 C 7.125 -5.457031 6.921875 -6.300781 6.515625 -6.8125 C 6.109375 -7.320312 5.472656 -7.578125 4.609375 -7.578125 Z M 4.609375 -7.578125 "/></g></g></g><g fill="#000000" fill-opacity="1"><g transform="translate(136.891529, 16.284656)"><g><path d="M 5.515625 -8.765625 C 6.535156 -8.765625 7.304688 -8.515625 7.828125 -8.015625 C 8.359375 -7.515625 8.625 -6.710938 8.625 -5.609375 L 8.625 0 L 7.234375 0 L 7.234375 -5.515625 C 7.234375 -6.890625 6.585938 -7.578125 5.296875 -7.578125 C 4.347656 -7.578125 3.691406 -7.304688 3.328125 -6.765625 C 2.960938 -6.234375 2.78125 -5.46875 2.78125 -4.46875 L 2.78125 0 L 1.359375 0 L 1.359375 -8.609375 L 2.5 -8.609375 L 2.71875 -7.4375 L 2.796875 -7.4375 C 3.078125 -7.882812 3.460938 -8.21875 3.953125 -8.4375 C 4.441406 -8.65625 4.960938 -8.765625 5.515625 -8.765625 Z M 5.515625 -8.765625 "/></g></g></g></g></g><g fill="#000000" fill-opacity="1"><g transform="translate(48.483696, 255.667294)"><g><path d="M 11.546875 0 L 3.703125 0 C 3.179688 0 2.921875 -0.257812 2.921875 -0.78125 L 2.921875 -28.671875 C 2.921875 -29.203125 3.179688 -29.46875 3.703125 -29.46875 L 11.546875 -29.46875 C 14.898438 -29.46875 17.734375 -28.882812 20.046875 -27.71875 C 22.367188 -26.5625 24.132812 -24.882812 25.34375 -22.6875 C 26.550781 -20.5 27.15625 -17.851562 27.15625 -14.75 C 27.15625 -11.675781 26.554688 -9.039062 25.359375 -6.84375 C 24.171875 -4.644531 22.414062 -2.953125 20.09375 -1.765625 C 17.769531 -0.585938 14.921875 0 11.546875 0 Z M 8.34375 -24.6875 L 8.34375 -4.78125 L 11.53125 -4.78125 C 13.695312 -4.78125 15.546875 -5.171875 17.078125 -5.953125 C 18.609375 -6.742188 19.769531 -7.882812 20.5625 -9.375 C 21.363281 -10.875 21.765625 -12.6875 21.765625 -14.8125 C 21.765625 -16.945312 21.363281 -18.742188 20.5625 -20.203125 C 19.769531 -21.671875 18.609375 -22.785156 17.078125 -23.546875 C 15.546875 -24.304688 13.695312 -24.6875 11.53125 -24.6875 Z M 8.34375 -24.6875 "/></g></g></g><g fill="#000000" fill-opacity="1"><g transform="translate(75.796851, 255.667294)"><g><path d="M 15.0625 -29.46875 L 27.765625 -0.921875 C 27.890625 -0.640625 27.894531 -0.414062 27.78125 -0.25 C 27.675781 -0.0820312 27.472656 0 27.171875 0 L 22.953125 0 C 22.503906 0 22.207031 -0.203125 22.0625 -0.609375 L 20.390625 -4.75 L 8.015625 -4.75 L 6.34375 -0.609375 C 6.195312 -0.203125 5.898438 0 5.453125 0 L 1.203125 0 C 0.921875 0 0.722656 -0.0820312 0.609375 -0.25 C 0.492188 -0.414062 0.503906 -0.640625 0.640625 -0.921875 L 13.328125 -29.46875 C 13.554688 -29.957031 13.847656 -30.203125 14.203125 -30.203125 C 14.554688 -30.203125 14.84375 -29.957031 15.0625 -29.46875 Z M 14.21875 -20.078125 L 9.765625 -9.078125 L 18.640625 -9.078125 Z M 14.21875 -20.078125 "/></g></g></g><g fill="#000000" fill-opacity="1"><g transform="translate(102.611318, 255.667294)"><g><path d="M 22.984375 -29.46875 L 27.203125 -29.46875 C 27.492188 -29.46875 27.695312 -29.382812 27.8125 -29.21875 C 27.925781 -29.050781 27.921875 -28.828125 27.796875 -28.546875 L 15.078125 0 C 14.859375 0.5 14.570312 0.75 14.21875 0.75 C 13.863281 0.75 13.570312 0.5 13.34375 0 L 0.65625 -28.546875 C 0.519531 -28.828125 0.507812 -29.050781 0.625 -29.21875 C 0.75 -29.382812 0.957031 -29.46875 1.25 -29.46875 L 5.46875 -29.46875 C 5.914062 -29.46875 6.21875 -29.257812 6.375 -28.84375 L 14.234375 -9.375 L 22.078125 -28.84375 C 22.234375 -29.257812 22.535156 -29.46875 22.984375 -29.46875 Z M 22.984375 -29.46875 "/></g></g></g><g fill="#000000" fill-opacity="1"><g transform="translate(129.464145, 255.667294)"><g><path d="M 7.515625 0 L 3.703125 0 C 3.179688 0 2.921875 -0.257812 2.921875 -0.78125 L 2.921875 -28.671875 C 2.921875 -29.203125 3.179688 -29.46875 3.703125 -29.46875 L 7.515625 -29.46875 C 8.046875 -29.46875 8.3125 -29.203125 8.3125 -28.671875 L 8.3125 -0.78125 C 8.3125 -0.257812 8.046875 0 7.515625 0 Z M 7.515625 0 "/></g></g></g><g fill="#000000" fill-opacity="1"><g transform="translate(139.073886, 255.667294)"><g><path d="M 11.546875 0 L 3.703125 0 C 3.179688 0 2.921875 -0.257812 2.921875 -0.78125 L 2.921875 -28.671875 C 2.921875 -29.203125 3.179688 -29.46875 3.703125 -29.46875 L 11.546875 -29.46875 C 14.898438 -29.46875 17.734375 -28.882812 20.046875 -27.71875 C 22.367188 -26.5625 24.132812 -24.882812 25.34375 -22.6875 C 26.550781 -20.5 27.15625 -17.851562 27.15625 -14.75 C 27.15625 -11.675781 26.554688 -9.039062 25.359375 -6.84375 C 24.171875 -4.644531 22.414062 -2.953125 20.09375 -1.765625 C 17.769531 -0.585938 14.921875 0 11.546875 0 Z M 8.34375 -24.6875 L 8.34375 -4.78125 L 11.53125 -4.78125 C 13.695312 -4.78125 15.546875 -5.171875 17.078125 -5.953125 C 18.609375 -6.742188 19.769531 -7.882812 20.5625 -9.375 C 21.363281 -10.875 21.765625 -12.6875 21.765625 -14.8125 C 21.765625 -16.945312 21.363281 -18.742188 20.5625 -20.203125 C 19.769531 -21.671875 18.609375 -22.785156 17.078125 -23.546875 C 15.546875 -24.304688 13.695312 -24.6875 11.53125 -24.6875 Z M 8.34375 -24.6875 "/></g></g></g><g fill="#000000" fill-opacity="1"><g transform="translate(166.387041, 255.667294)"><g><path d="M 11.546875 0 L 3.703125 0 C 3.179688 0 2.921875 -0.257812 2.921875 -0.78125 L 2.921875 -28.671875 C 2.921875 -29.203125 3.179688 -29.46875 3.703125 -29.46875 L 11.546875 -29.46875 C 14.898438 -29.46875 17.734375 -28.882812 20.046875 -27.71875 C 22.367188 -26.5625 24.132812 -24.882812 25.34375 -22.6875 C 26.550781 -20.5 27.15625 -17.851562 27.15625 -14.75 C 27.15625 -11.675781 26.554688 -9.039062 25.359375 -6.84375 C 24.171875 -4.644531 22.414062 -2.953125 20.09375 -1.765625 C 17.769531 -0.585938 14.921875 0 11.546875 0 Z M 8.34375 -24.6875 L 8.34375 -4.78125 L 11.53125 -4.78125 C 13.695312 -4.78125 15.546875 -5.171875 17.078125 -5.953125 C 18.609375 -6.742188 19.769531 -7.882812 20.5625 -9.375 C 21.363281 -10.875 21.765625 -12.6875 21.765625 -14.8125 C 21.765625 -16.945312 21.363281 -18.742188 20.5625 -20.203125 C 19.769531 -21.671875 18.609375 -22.785156 17.078125 -23.546875 C 15.546875 -24.304688 13.695312 -24.6875 11.53125 -24.6875 Z M 8.34375 -24.6875 "/></g></g></g><g fill="#000000" fill-opacity="1"><g transform="translate(193.700195, 255.667294)"><g><path d="M 19.578125 0 L 3.703125 0 C 3.179688 0 2.921875 -0.257812 2.921875 -0.78125 L 2.921875 -28.671875 C 2.921875 -29.203125 3.179688 -29.46875 3.703125 -29.46875 L 19.578125 -29.46875 C 20.109375 -29.46875 20.375 -29.203125 20.375 -28.671875 L 20.375 -25.46875 C 20.375 -24.945312 20.109375 -24.6875 19.578125 -24.6875 L 8.3125 -24.6875 L 8.3125 -14.265625 L 18.046875 -14.265625 C 18.566406 -14.265625 18.828125 -14.003906 18.828125 -13.484375 L 18.828125 -10.484375 C 18.828125 -9.960938 18.566406 -9.703125 18.046875 -9.703125 L 8.3125 -9.703125 L 8.3125 -4.78125 L 19.578125 -4.78125 C 20.109375 -4.78125 20.375 -4.515625 20.375 -3.984375 L 20.375 -0.78125 C 20.375 -0.257812 20.109375 0 19.578125 0 Z M 19.578125 0 "/></g></g></g><g fill="#000000" fill-opacity="1"><g transform="translate(214.281065, 255.667294)"><g><path d="M 11.515625 0.6875 C 10.097656 0.6875 8.644531 0.546875 7.15625 0.265625 C 5.664062 -0.015625 4.015625 -0.503906 2.203125 -1.203125 C 1.722656 -1.429688 1.578125 -1.785156 1.765625 -2.265625 L 2.953125 -5.453125 C 3.140625 -5.910156 3.484375 -6.03125 3.984375 -5.8125 C 5.410156 -5.144531 6.742188 -4.675781 7.984375 -4.40625 C 9.234375 -4.144531 10.363281 -4.015625 11.375 -4.015625 C 12.78125 -4.015625 13.910156 -4.285156 14.765625 -4.828125 C 15.617188 -5.378906 16.046875 -6.195312 16.046875 -7.28125 C 16.046875 -7.9375 15.851562 -8.523438 15.46875 -9.046875 C 15.082031 -9.566406 14.554688 -10.050781 13.890625 -10.5 C 13.222656 -10.957031 12.46875 -11.40625 11.625 -11.84375 C 10.789062 -12.28125 9.921875 -12.742188 9.015625 -13.234375 C 8.117188 -13.722656 7.257812 -14.242188 6.4375 -14.796875 C 5.613281 -15.347656 4.867188 -15.96875 4.203125 -16.65625 C 3.546875 -17.34375 3.023438 -18.132812 2.640625 -19.03125 C 2.265625 -19.9375 2.078125 -20.976562 2.078125 -22.15625 C 2.078125 -23.570312 2.332031 -24.785156 2.84375 -25.796875 C 3.363281 -26.804688 4.066406 -27.628906 4.953125 -28.265625 C 5.847656 -28.910156 6.859375 -29.382812 7.984375 -29.6875 C 9.117188 -30 10.304688 -30.15625 11.546875 -30.15625 C 12.710938 -30.15625 13.984375 -30.015625 15.359375 -29.734375 C 16.734375 -29.453125 18.078125 -29.0625 19.390625 -28.5625 C 19.878906 -28.363281 20.019531 -28.023438 19.8125 -27.546875 L 18.796875 -24.5 C 18.585938 -24.007812 18.25 -23.859375 17.78125 -24.046875 C 16.757812 -24.484375 15.71875 -24.820312 14.65625 -25.0625 C 13.59375 -25.3125 12.585938 -25.4375 11.640625 -25.4375 C 10.890625 -25.4375 10.195312 -25.335938 9.5625 -25.140625 C 8.9375 -24.953125 8.4375 -24.644531 8.0625 -24.21875 C 7.695312 -23.800781 7.515625 -23.238281 7.515625 -22.53125 C 7.515625 -21.894531 7.675781 -21.320312 8 -20.8125 C 8.332031 -20.3125 8.785156 -19.847656 9.359375 -19.421875 C 9.929688 -18.992188 10.585938 -18.582031 11.328125 -18.1875 C 12.078125 -17.789062 12.875 -17.378906 13.71875 -16.953125 C 14.632812 -16.460938 15.550781 -15.941406 16.46875 -15.390625 C 17.394531 -14.835938 18.238281 -14.195312 19 -13.46875 C 19.757812 -12.75 20.367188 -11.90625 20.828125 -10.9375 C 21.285156 -9.976562 21.515625 -8.851562 21.515625 -7.5625 C 21.515625 -6.101562 21.238281 -4.851562 20.6875 -3.8125 C 20.144531 -2.769531 19.398438 -1.914062 18.453125 -1.25 C 17.503906 -0.582031 16.429688 -0.09375 15.234375 0.21875 C 14.046875 0.53125 12.804688 0.6875 11.515625 0.6875 Z M 11.515625 0.6875 "/></g></g></g><g fill="#000000" fill-opacity="1"><g transform="translate(235.744229, 255.667294)"><g><path d="M 7.515625 0 L 3.703125 0 C 3.179688 0 2.921875 -0.257812 2.921875 -0.78125 L 2.921875 -28.671875 C 2.921875 -29.203125 3.179688 -29.46875 3.703125 -29.46875 L 7.515625 -29.46875 C 8.046875 -29.46875 8.3125 -29.203125 8.3125 -28.671875 L 8.3125 -0.78125 C 8.3125 -0.257812 8.046875 0 7.515625 0 Z M 7.515625 0 "/></g></g></g><g fill="#000000" fill-opacity="1"><g transform="translate(245.35397, 255.667294)"><g><path d="M 17.265625 0.6875 C 15.472656 0.6875 13.785156 0.445312 12.203125 -0.03125 C 10.628906 -0.507812 9.195312 -1.195312 7.90625 -2.09375 C 6.625 -2.988281 5.519531 -4.066406 4.59375 -5.328125 C 3.664062 -6.597656 2.945312 -8.019531 2.4375 -9.59375 C 1.9375 -11.175781 1.6875 -12.890625 1.6875 -14.734375 C 1.6875 -16.578125 1.9375 -18.285156 2.4375 -19.859375 C 2.945312 -21.441406 3.664062 -22.863281 4.59375 -24.125 C 5.519531 -25.394531 6.625 -26.476562 7.90625 -27.375 C 9.195312 -28.269531 10.628906 -28.957031 12.203125 -29.4375 C 13.785156 -29.914062 15.472656 -30.15625 17.265625 -30.15625 C 19.640625 -30.15625 21.8125 -29.734375 23.78125 -28.890625 C 25.757812 -28.046875 27.441406 -26.875 28.828125 -25.375 C 29.203125 -25 29.171875 -24.640625 28.734375 -24.296875 L 25.625 -22.109375 C 25.25 -21.804688 24.882812 -21.832031 24.53125 -22.1875 C 23.632812 -23.09375 22.566406 -23.8125 21.328125 -24.34375 C 20.085938 -24.875 18.734375 -25.140625 17.265625 -25.140625 C 15.816406 -25.140625 14.472656 -24.894531 13.234375 -24.40625 C 12.003906 -23.914062 10.925781 -23.207031 10 -22.28125 C 9.082031 -21.363281 8.367188 -20.269531 7.859375 -19 C 7.347656 -17.726562 7.09375 -16.304688 7.09375 -14.734375 C 7.09375 -13.148438 7.347656 -11.703125 7.859375 -10.390625 C 8.367188 -9.085938 9.082031 -7.96875 10 -7.03125 C 10.925781 -6.101562 12.003906 -5.382812 13.234375 -4.875 C 14.472656 -4.375 15.816406 -4.125 17.265625 -4.125 C 18.679688 -4.125 19.992188 -4.375 21.203125 -4.875 C 22.421875 -5.375 23.476562 -6.054688 24.375 -6.921875 L 24.375 -9.703125 L 17.96875 -9.703125 C 17.445312 -9.703125 17.1875 -9.960938 17.1875 -10.484375 L 17.1875 -13.484375 C 17.1875 -14.003906 17.445312 -14.265625 17.96875 -14.265625 L 28.578125 -14.265625 C 29.097656 -14.265625 29.359375 -14.003906 29.359375 -13.484375 L 29.359375 -5.21875 C 29.359375 -4.863281 29.242188 -4.5625 29.015625 -4.3125 C 27.660156 -2.726562 25.972656 -1.5 23.953125 -0.625 C 21.929688 0.25 19.703125 0.6875 17.265625 0.6875 Z M 17.265625 0.6875 "/></g></g></g><g fill="#000000" fill-opacity="1"><g transform="translate(275.122202, 255.667294)"><g><path d="M 7.421875 0 L 3.734375 0 C 3.210938 0 2.953125 -0.257812 2.953125 -0.78125 L 2.953125 -28.796875 C 2.953125 -29.492188 3.144531 -29.921875 3.53125 -30.078125 C 3.925781 -30.234375 4.375 -30.0625 4.875 -29.5625 L 21.671875 -12.109375 L 21.671875 -28.671875 C 21.671875 -29.203125 21.929688 -29.46875 22.453125 -29.46875 L 26.15625 -29.46875 C 26.6875 -29.46875 26.953125 -29.203125 26.953125 -28.671875 L 26.953125 -0.6875 C 26.953125 0.0078125 26.742188 0.425781 26.328125 0.5625 C 25.921875 0.707031 25.453125 0.519531 24.921875 0 L 8.203125 -17.8125 L 8.203125 -0.78125 C 8.203125 -0.257812 7.941406 0 7.421875 0 Z M 7.421875 0 "/></g></g></g><g fill="#000000" fill-opacity="1"><g transform="translate(303.432732, 255.667294)"><g><path d="M 11.515625 0.6875 C 10.097656 0.6875 8.644531 0.546875 7.15625 0.265625 C 5.664062 -0.015625 4.015625 -0.503906 2.203125 -1.203125 C 1.722656 -1.429688 1.578125 -1.785156 1.765625 -2.265625 L 2.953125 -5.453125 C 3.140625 -5.910156 3.484375 -6.03125 3.984375 -5.8125 C 5.410156 -5.144531 6.742188 -4.675781 7.984375 -4.40625 C 9.234375 -4.144531 10.363281 -4.015625 11.375 -4.015625 C 12.78125 -4.015625 13.910156 -4.285156 14.765625 -4.828125 C 15.617188 -5.378906 16.046875 -6.195312 16.046875 -7.28125 C 16.046875 -7.9375 15.851562 -8.523438 15.46875 -9.046875 C 15.082031 -9.566406 14.554688 -10.050781 13.890625 -10.5 C 13.222656 -10.957031 12.46875 -11.40625 11.625 -11.84375 C 10.789062 -12.28125 9.921875 -12.742188 9.015625 -13.234375 C 8.117188 -13.722656 7.257812 -14.242188 6.4375 -14.796875 C 5.613281 -15.347656 4.867188 -15.96875 4.203125 -16.65625 C 3.546875 -17.34375 3.023438 -18.132812 2.640625 -19.03125 C 2.265625 -19.9375 2.078125 -20.976562 2.078125 -22.15625 C 2.078125 -23.570312 2.332031 -24.785156 2.84375 -25.796875 C 3.363281 -26.804688 4.066406 -27.628906 4.953125 -28.265625 C 5.847656 -28.910156 6.859375 -29.382812 7.984375 -29.6875 C 9.117188 -30 10.304688 -30.15625 11.546875 -30.15625 C 12.710938 -30.15625 13.984375 -30.015625 15.359375 -29.734375 C 16.734375 -29.453125 18.078125 -29.0625 19.390625 -28.5625 C 19.878906 -28.363281 20.019531 -28.023438 19.8125 -27.546875 L 18.796875 -24.5 C 18.585938 -24.007812 18.25 -23.859375 17.78125 -24.046875 C 16.757812 -24.484375 15.71875 -24.820312 14.65625 -25.0625 C 13.59375 -25.3125 12.585938 -25.4375 11.640625 -25.4375 C 10.890625 -25.4375 10.195312 -25.335938 9.5625 -25.140625 C 8.9375 -24.953125 8.4375 -24.644531 8.0625 -24.21875 C 7.695312 -23.800781 7.515625 -23.238281 7.515625 -22.53125 C 7.515625 -21.894531 7.675781 -21.320312 8 -20.8125 C 8.332031 -20.3125 8.785156 -19.847656 9.359375 -19.421875 C 9.929688 -18.992188 10.585938 -18.582031 11.328125 -18.1875 C 12.078125 -17.789062 12.875 -17.378906 13.71875 -16.953125 C 14.632812 -16.460938 15.550781 -15.941406 16.46875 -15.390625 C 17.394531 -14.835938 18.238281 -14.195312 19 -13.46875 C 19.757812 -12.75 20.367188 -11.90625 20.828125 -10.9375 C 21.285156 -9.976562 21.515625 -8.851562 21.515625 -7.5625 C 21.515625 -6.101562 21.238281 -4.851562 20.6875 -3.8125 C 20.144531 -2.769531 19.398438 -1.914062 18.453125 -1.25 C 17.503906 -0.582031 16.429688 -0.09375 15.234375 0.21875 C 14.046875 0.53125 12.804688 0.6875 11.515625 0.6875 Z M 11.515625 0.6875 "/></g></g></g></svg>